<?xml version="1.0" encoding="UTF-8" standalone="no"?>
<svg
   xmlns:dc="http://purl.org/dc/elements/1.1/"
   xmlns:cc="http://creativecommons.org/ns#"
   xmlns:rdf="http://www.w3.org/1999/02/22-rdf-syntax-ns#"
   xmlns:svg="http://www.w3.org/2000/svg"
   xmlns="http://www.w3.org/2000/svg"
   xmlns:sodipodi="http://sodipodi.sourceforge.net/DTD/sodipodi-0.dtd"
   xmlns:inkscape="http://www.inkscape.org/namespaces/inkscape"
   width="512"
   height="267.67114"
   viewBox="0 0 135.46666 70.821325"
   version="1.1"
   id="svg8"
   inkscape:version="1.0.1 (3bc2e813f5, 2020-09-07)"
   sodipodi:docname="logo.svg">
  <defs
     id="defs2" />
  <sodipodi:namedview
     id="base"
     pagecolor="#ffffff"
     bordercolor="#666666"
     borderopacity="1.0"
     inkscape:pageopacity="0.0"
     inkscape:pageshadow="2"
     inkscape:zoom="0.7"
     inkscape:cx="533.15838"
     inkscape:cy="61.57082"
     inkscape:document-units="px"
     inkscape:current-layer="g876"
     inkscape:document-rotation="0"
     showgrid="false"
     units="px"
     inkscape:window-width="2560"
     inkscape:window-height="1361"
     inkscape:window-x="2391"
     inkscape:window-y="-9"
     inkscape:window-maximized="1"
     fit-margin-top="0"
     fit-margin-left="0"
     fit-margin-right="0"
     fit-margin-bottom="0" />
  <metadata
     id="metadata5">
    <rdf:RDF>
      <cc:Work
         rdf:about="">
        <dc:format>image/svg+xml</dc:format>
        <dc:type
           rdf:resource="http://purl.org/dc/dcmitype/StillImage" />
        <dc:title></dc:title>
      </cc:Work>
    </rdf:RDF>
  </metadata>
  <g
     inkscape:label="Ebene 1"
     inkscape:groupmode="layer"
     id="layer1"
     transform="translate(-5.7131098e-7,-32.322672)">
    <g
       id="g876"
       transform="matrix(1.5886842,0,0,1.5886842,-42.259722,-41.216675)">
      <path
         d="m 40.591502,72.036088 q -6.671404,-1.91768 -9.723506,-4.69966 -3.025091,-2.80905 -3.025091,-6.91448 0,-4.64572 3.700336,-7.67079 3.727343,-3.05209 9.669489,-3.05209 4.051462,0 7.211601,1.56655 3.187151,1.56655 4.915774,4.32156 1.755635,2.755 1.755635,6.02317 h -5.212882 q 0,-3.56531 -2.268821,-5.59103 -2.268815,-2.05274 -6.401307,-2.05274 -3.835385,0 -5.996164,1.70161 -2.133773,1.67464 -2.133773,4.67269 0,2.40388 2.025731,4.07847 2.052743,1.64761 6.941506,3.02512 4.915774,1.3775 7.670769,3.05209 2.782006,1.64762 4.105485,3.86239 1.350486,2.21482 1.350486,5.21287 0,4.78073 -3.727348,7.67079 -3.727343,2.86304 -9.966596,2.86304 -4.051463,0 -7.562728,-1.53958 -3.51127,-1.56655 -5.428959,-4.26751 -1.890684,-2.70102 -1.890684,-6.13121 h 5.212882 q 0,3.56525 2.619947,5.64502 2.646953,2.05274 7.049542,2.05274 4.10548,0 6.293271,-1.67459 2.187791,-1.67464 2.187791,-4.56465 0,-2.89007 -2.025731,-4.45662 -2.025731,-1.59358 -7.346655,-3.13316 z"
         style="font-style:normal;font-variant:normal;font-weight:normal;font-stretch:normal;font-size:10.5833px;line-height:1.25;font-family:Roboto;-inkscape-font-specification:Roboto;fill:#ffffff;fill-opacity:1;stroke:none;stroke-width:1.3829"
         id="path851" />
      <path
         d="m 111.87018,84.406588 q -1.99873,2.86304 -5.59102,4.29454 -3.56529,1.40452 -8.318998,1.40452 -4.80774,0 -8.53509,-2.24184 -3.72734,-2.26882 -5.78008,-6.4283 -2.025732,-4.15953 -2.079756,-9.64246 v -3.43025 q 0,-8.88621 4.132496,-13.77497 4.1595,-4.88876 11.66821,-4.88876 6.158218,0 9.912578,3.16012 3.75435,3.13311 4.59166,8.91324 h -5.18588 q -1.45852,-7.80585 -9.291348,-7.80585 -5.21288,0 -7.91386,3.67334 -2.67396,3.64632 -2.70097,10.58782 v 3.21418 q 0,6.61739 3.02509,10.53378 3.02509,3.88941 8.18396,3.88941 2.917048,0 5.104838,-0.64822 2.18779,-0.64827 3.6193,-2.1878 v -8.83217 h -9.102278 v -4.21352 h 14.261148 z"
         style="font-style:normal;font-variant:normal;font-weight:normal;font-stretch:normal;font-size:10.5833px;line-height:1.25;font-family:Roboto;-inkscape-font-specification:Roboto;fill:#ffffff;fill-opacity:1;stroke:none;stroke-width:1.3829"
         id="path855" />
      <path
         id="path849"
         style="fill:none;stroke:#ffffff;stroke-width:5.22672;stroke-linecap:butt;stroke-linejoin:bevel;stroke-miterlimit:4;stroke-dasharray:none;stroke-opacity:1"
         d="m 54.88088,54.876758 16.963777,26.40749 -2.274957,7.03883 12.487882,-2.91395 -4.629302,-5.39424 4.016935,-31.17708 z"
         sodipodi:nodetypes="ccccccc" />
      <path
         style="fill:none;stroke:#ffffff;stroke-width:1.38508;stroke-linecap:butt;stroke-linejoin:miter;stroke-miterlimit:4;stroke-dasharray:none;stroke-opacity:1"
         d="M 59.343576,60.659288 H 78.481967"
         id="path861" />
      <circle
         style="fill:none;stroke:#ffffff;stroke-width:1.38508;stroke-linejoin:bevel;stroke-miterlimit:4;stroke-dasharray:none;stop-color:#000000"
         id="path863"
         cx="68.261848"
         cy="64.612495"
         r="1.3209796" />
      <circle
         style="fill:none;stroke:#ffffff;stroke-width:1.38508;stroke-linejoin:bevel;stroke-miterlimit:4;stroke-dasharray:none;stop-color:#000000"
         id="circle865"
         cx="73.200783"
         cy="66.217613"
         r="1.3209796" />
      <circle
         style="fill:none;stroke:#ffffff;stroke-width:1.38508;stroke-linejoin:bevel;stroke-miterlimit:4;stroke-dasharray:none;stop-color:#000000"
         id="circle867"
         cx="72.336456"
         cy="71.897423"
         r="1.3209796" />
    </g>
  </g>
</svg>
